{
  "accessors": [
    {
      "bufferView": 2,
      "componentType": 5126,
      "count": 7308,
      "max": [
        5.057693004608154,
        4.729788780212402,
        5.041375160217285
      ],
      "min": [
        -5.057694911956787,
        0.0,
        -5.041375160217285
      ],
      "type": "VEC3"
    },
    {
      "bufferView": 2,
      "byteOffset": 87696,
      "componentType": 5126,
      "count": 7308,
      "max": [
        0.9999949932098389,
        1.0,
        0.999999463558197
      ],
      "min": [
        -0.9999949932098389,
        -1.0,
        -0.999999463558197
      ],
      "type": "VEC3"
    },
    {
      "bufferView": 1,
      "componentType": 5126,
      "count": 7308,
      "max": [
        0.8125240206718445,
        0.9792299866676331
      ],
      "min": [
        0.009999999776482582,
        0.39024901390075684
      ],
      "type": "VEC2"
    },
    {
      "bufferView": 0,
      "componentType": 5125,
      "count": 11148,
      "type": "SCALAR"
    },
    {
      "bufferView": 2,
      "byteOffset": 175392,
      "componentType": 5126,
      "count": 27888,
      "max": [
        3.1806628704071045,
        4.5550994873046875,
        6.387511253356934
      ],
      "min": [
        -3.1677939891815186,
        -4.562080383300781,
        4.927410125732422
      ],
      "type": "VEC3"
    },
    {
      "bufferView": 2,
      "byteOffset": 510048,
      "componentType": 5126,
      "count": 27888,
      "max": [
        0.9998422265052795,
        0.9986217021942139,
        1.0
      ],
      "min": [
        -0.9997241497039795,
        -0.998594343662262,
        -0.979547381401062
      ],
      "type": "VEC3"
    },
    {
      "bufferView": 1,
      "byteOffset": 58464,
      "componentType": 5126,
      "count": 27888,
      "max": [
        1.0,
        1.0
      ],
      "min": [
        0.0,
        0.0
      ],
      "type": "VEC2"
    },
    {
      "bufferView": 0,
      "byteOffset": 44592,
      "componentType": 5125,
      "count": 155904,
      "type": "SCALAR"
    },
    {
      "bufferView": 2,
      "byteOffset": 844704,
      "componentType": 5126,
      "count": 6055,
      "max": [
        4.772842884063721,
        9.6192626953125,
        4.764256954193115
      ],
      "min": [
        -4.771676063537598,
        0.39697200059890747,
        -4.763940811157227
      ],
      "type": "VEC3"
    },
    {
      "bufferView": 2,
      "byteOffset": 917364,
      "componentType": 5126,
      "count": 6055,
      "max": [
        0.9999741315841675,
        1.0,
        0.9999972581863403
      ],
      "min": [
        -0.9999740123748779,
        -1.0,
        -0.9999972581863403
      ],
      "type": "VEC3"
    },
    {
      "bufferView": 1,
      "byteOffset": 281568,
      "componentType": 5126,
      "count": 6055,
      "max": [
        0.9900000095367432,
        0.9674360156059265
      ],
      "min": [
        0.009999999776482582,
        0.009999999776482582
      ],
      "type": "VEC2"
    },
    {
      "bufferView": 0,
      "byteOffset": 668208,
      "componentType": 5125,
      "count": 9228,
      "type": "SCALAR"
    },
    {
      "bufferView": 2,
      "byteOffset": 990024,
      "componentType": 5126,
      "count": 7618,
      "max": [
        5.058292865753174,
        9.97994613647461,
        5.041372776031494
      ],
      "min": [
        -5.058291912078857,
        5.5637969970703125,
        -5.041372776031494
      ],
      "type": "VEC3"
    },
    {
      "bufferView": 2,
      "byteOffset": 1081440,
      "componentType": 5126,
      "count": 7618,
      "max": [
        0.9999998807907104,
        1.0,
        0.999999463558197
      ],
      "min": [
        -0.9999998807907104,
        -1.0,
        -0.999999463558197
      ],
      "type": "VEC3"
    },
    {
      "bufferView": 1,
      "byteOffset": 330008,
      "componentType": 5126,
      "count": 7618,
      "max": [
        0.9663289785385132,
        0.9792309999465942
      ],
      "min": [
        0.009999999776482582,
        0.009999999776482582
      ],
      "type": "VEC2"
    },
    {
      "bufferView": 0,
      "byteOffset": 705120,
      "componentType": 5125,
      "count": 11640,
      "type": "SCALAR"
    },
    {
      "bufferView": 3,
      "componentType": 5126,
      "count": 97,
      "max": [
        2.0
      ],
      "min": [
        0.0
      ],
      "type": "SCALAR"
    },
    {
      "bufferView": 4,
      "componentType": 5126,
      "count": 97,
      "max": [
        4.76837158203125e-07,
        0.5,
        0.0
      ],
      "min": [
        4.76837158203125e-07,
        -0.5,
        0.0
      ],
      "type": "VEC3"
    },
    {
      "bufferView": 3,
      "byteOffset": 388,
      "componentType": 5126,
      "count": 97,
      "max": [
        2.0
      ],
      "min": [
        0.0
      ],
      "type": "SCALAR"
    },
    {
      "bufferView": 5,
      "componentType": 5126,
      "count": 97,
      "max": [
        0.0,
        0.017452405765652657,
        0.0,
        1.0
      ],
      "min": [
        0.0,
        -0.017452405765652657,
        0.0,
        0.9998477101325989
      ],
      "type": "VEC4"
    }
  ],
  "animations": [
    {
      "channels": [
        {
          "sampler": 0,
          "target": {
            "node": 4,
            "path": "translation"
          }
        },
        {
          "sampler": 1,
          "target": {
            "node": 4,
            "path": "rotation"
          }
        }
      ],
      "name": "Take 001",
      "samplers": [
        {
          "input": 16,
          "interpolation": "LINEAR",
          "output": 17
        },
        {
          "input": 18,
          "interpolation": "LINEAR",
          "output": 19
        }
      ]
    }
  ],
  "asset": {
    "extras": {
      "author": "xxblue (https://sketchfab.com/xxblue)",
      "license": "CC-BY-4.0 (http://creativecommons.org/licenses/by/4.0/)",
      "source": "https://sketchfab.com/3d-models/lucky-box-locked-677a2ccb8e00467eaeab932a896bc3d6",
      "title": "Lucky Box_locked"
    },
    "generator": "Sketchfab-15.29.0",
    "version": "2.0"
  },
  "bufferViews": [
    {
      "buffer": 0,
      "byteLength": 751680,
      "name": "floatBufferViews",
      "target": 34963
    },
    {
      "buffer": 0,
      "byteLength": 390952,
      "byteOffset": 751680,
      "byteStride": 8,
      "name": "floatBufferViews",
      "target": 34962
    },
    {
      "buffer": 0,
      "byteLength": 1172856,
      "byteOffset": 1142632,
      "byteStride": 12,
      "name": "floatBufferViews",
      "target": 34962
    },
    {
      "buffer": 0,
      "byteLength": 776,
      "byteOffset": 2315488,
      "name": "floatBufferViews"
    },
    {
      "buffer": 0,
      "byteLength": 1164,
      "byteOffset": 2316264,
      "byteStride": 12,
      "name": "floatBufferViews"
    },
    {
      "buffer": 0,
      "byteLength": 1552,
      "byteOffset": 2317428,
      "byteStride": 16,
      "name": "floatBufferViews"
    }
  ],
  "buffers": [
    {
      "byteLength": 2318980,
      "uri": "scene.bin"
    }
  ],
  "images": [
    {
      "uri": "textures/lambert3_baseColor.jpeg"
    }
  ],
  "materials": [
    {
      "doubleSided": true,
      "name": "lambert3",
      "pbrMetallicRoughness": {
        "baseColorTexture": {
          "index": 0
        },
        "metallicFactor": 0.0,
        "roughnessFactor": 0.6
      }
    },
    {
      "doubleSided": true,
      "name": "phong2",
      "pbrMetallicRoughness": {
        "baseColorFactor": [
          0.0322581,
          0.0322581,
          0.0322581,
          1.0
        ],
        "metallicFactor": 0.0,
        "roughnessFactor": 0.9352389215808592
      }
    }
  ],
  "meshes": [
    {
      "name": "LuckyBox_base_lambert3_0",
      "primitives": [
        {
          "attributes": {
            "NORMAL": 1,
            "POSITION": 0,
            "TEXCOORD_0": 2
          },
          "indices": 3,
          "material": 0,
          "mode": 4
        }
      ]
    },
    {
      "name": "LOGOMARK:Mesh_phong2_0",
      "primitives": [
        {
          "attributes": {
            "NORMAL": 5,
            "POSITION": 4,
            "TEXCOORD_0": 6
          },
          "indices": 7,
          "material": 1,
          "mode": 4
        }
      ]
    },
    {
      "name": "LuckyBox_body_lambert3_0",
      "primitives": [
        {
          "attributes": {
            "NORMAL": 9,
            "POSITION": 8,
            "TEXCOORD_0": 10
          },
          "indices": 11,
          "material": 0,
          "mode": 4
        }
      ]
    },
    {
      "name": "LuckyBox_lid_lambert3_0",
      "primitives": [
        {
          "attributes": {
            "NORMAL": 13,
            "POSITION": 12,
            "TEXCOORD_0": 14
          },
          "indices": 15,
          "material": 0,
          "mode": 4
        }
      ]
    }
  ],
  "nodes": [
    {
      "children": [
        1
      ],
      "matrix": [
        1.0,
        0.0,
        0.0,
        0.0,
        0.0,
        2.220446049250313e-16,
        -1.0,
        0.0,
        0.0,
        1.0,
        2.220446049250313e-16,
        0.0,
        0.0,
        0.0,
        0.0,
        1.0
      ],
      "name": "Sketchfab_model"
    },
    {
      "children": [
        2
      ],
      "matrix": [
        0.009999999776482582,
        0.0,
        0.0,
        0.0,
        0.0,
        0.0,
        0.009999999776482582,
        0.0,
        0.0,
        -0.009999999776482582,
        0.0,
        0.0,
        0.0,
        0.0,
        0.0,
        1.0
      ],
      "name": "821bca42f7fb4f2c9af90f8da3ef2297.fbx"
    },
    {
      "children": [
        3
      ],
      "name": "Object_2"
    },
    {
      "children": [
        4,
        13,
        15
      ],
      "name": "RootNode"
    },
    {
      "children": [
        5,
        11
      ],
      "name": "LuckBox_Pos",
      "rotation": [
        0.0,
        -0.017452405765652657,
        0.0,
        0.9998477101325989
      ],
      "translation": [
        4.76837158203125e-07,
        -0.5,
        0.0
      ]
    },
    {
      "children": [
        6,
        7,
        9
      ],
      "name": "LuckyBox_base",
      "translation": [
        -4.76837158203125e-07,
        -4.989973068237305,
        0.0
      ]
    },
    {
      "mesh": 0,
      "name": "LuckyBox_base_lambert3_0"
    },
    {
      "children": [
        8
      ],
      "name": "LOGOMARK:Mesh",
      "translation": [
        4.76837158203125e-07,
        4.989973068237305,
        -5.94385518401004e-19
      ]
    },
    {
      "mesh": 1,
      "name": "LOGOMARK:Mesh_phong2_0"
    },
    {
      "children": [
        10
      ],
      "name": "LuckyBox_body",
      "translation": [
        0.0,
        8.881784197001252e-16,
        0.0
      ]
    },
    {
      "mesh": 2,
      "name": "LuckyBox_body_lambert3_0"
    },
    {
      "children": [
        12
      ],
      "name": "LuckyBox_lid",
      "translation": [
        -4.76837158203125e-07,
        -4.989973068237305,
        9.926167350636332e-24
      ]
    },
    {
      "mesh": 3,
      "name": "LuckyBox_lid_lambert3_0"
    },
    {
      "children": [
        14
      ],
      "name": "camera1",
      "rotation": [
        -0.09489170461893082,
        0.9207481741905212,
        -0.038796499371528625,
        0.3764481246471405
      ],
      "translation": [
        41.034889221191406,
        12.31087589263916,
        40.28126907348633
      ]
    },
    {
      "name": "Object_14"
    },
    {
      "name": "aiSkyDomeLight1"
    }
  ],
  "samplers": [
    {
      "magFilter": 9729,
      "minFilter": 9987,
      "wrapS": 10497,
      "wrapT": 10497
    }
  ],
  "scene": 0,
  "scenes": [
    {
      "name": "Sketchfab_Scene",
      "nodes": [
        0
      ]
    }
  ],
  "textures": [
    {
      "sampler": 0,
      "source": 0
    }
  ]
}
