{
  "accessors": [
    {
      "bufferView": 2,
      "componentType": 5126,
      "count": 7308,
      "max": [
        5.057693004608154,
        4.729788780212402,
        5.041375160217285
      ],
      "min": [
        -5.057694911956787,
        0.0,
        -5.041375160217285
      ],
      "type": "VEC3"
    },
    {
      "bufferView": 2,
      "byteOffset": 87696,
      "componentType": 5126,
      "count": 7308,
      "max": [
        0.9999949932098389,
        1.0,
        0.999999463558197
      ],
      "min": [
        -0.9999949932098389,
        -1.0,
        -0.999999463558197
      ],
      "type": "VEC3"
    },
    {
      "bufferView": 1,
      "componentType": 5126,
      "count": 7308,
      "max": [
        0.8125240206718445,
        0.9792299866676331
      ],
      "min": [
        0.009999999776482582,
        0.39024901390075684
      ],
      "type": "VEC2"
    },
    {
      "bufferView": 0,
      "componentType": 5125,
      "count": 11148,
      "type": "SCALAR"
    },
    {
      "bufferView": 2,
      "byteOffset": 175392,
      "componentType": 5126,
      "count": 27888,
      "max": [
        3.19452166557312,
        5.953751087188721,
        1.1384303569793701
      ],
      "min": [
        -3.153935194015503,
        -3.163428783416748,
        -0.3216707706451416
      ],
      "type": "VEC3"
    },
    {
      "bufferView": 2,
      "byteOffset": 510048,
      "componentType": 5126,
      "count": 27888,
      "max": [
        0.9998422265052795,
        0.9986217021942139,
        1.0
      ],
      "min": [
        -0.9997241497039795,
        -0.998594343662262,
        -0.979547381401062
      ],
      "type": "VEC3"
    },
    {
      "bufferView": 1,
      "byteOffset": 58464,
      "componentType": 5126,
      "count": 27888,
      "max": [
        1.0,
        1.0
      ],
      "min": [
        0.0,
        0.0
      ],
      "type": "VEC2"
    },
    {
      "bufferView": 0,
      "byteOffset": 44592,
      "componentType": 5125,
      "count": 155904,
      "type": "SCALAR"
    },
    {
      "bufferView": 2,
      "byteOffset": 844704,
      "componentType": 5126,
      "count": 6055,
      "max": [
        4.772842884063721,
        9.6192626953125,
        4.764256954193115
      ],
      "min": [
        -4.771676063537598,
        0.39697200059890747,
        -4.763940811157227
      ],
      "type": "VEC3"
    },
    {
      "bufferView": 2,
      "byteOffset": 917364,
      "componentType": 5126,
      "count": 6055,
      "max": [
        0.9999741315841675,
        1.0,
        0.9999972581863403
      ],
      "min": [
        -0.9999740123748779,
        -1.0,
        -0.9999972581863403
      ],
      "type": "VEC3"
    },
    {
      "bufferView": 1,
      "byteOffset": 281568,
      "componentType": 5126,
      "count": 6055,
      "max": [
        0.9900000095367432,
        0.9674360156059265
      ],
      "min": [
        0.009999999776482582,
        0.009999999776482582
      ],
      "type": "VEC2"
    },
    {
      "bufferView": 0,
      "byteOffset": 668208,
      "componentType": 5125,
      "count": 9228,
      "type": "SCALAR"
    },
    {
      "bufferView": 2,
      "byteOffset": 990024,
      "componentType": 5126,
      "count": 7618,
      "max": [
        5.058292865753174,
        9.97994613647461,
        5.041372776031494
      ],
      "min": [
        -5.058291912078857,
        5.5637969970703125,
        -5.041372776031494
      ],
      "type": "VEC3"
    },
    {
      "bufferView": 2,
      "byteOffset": 1081440,
      "componentType": 5126,
      "count": 7618,
      "max": [
        0.9999998807907104,
        1.0,
        0.999999463558197
      ],
      "min": [
        -0.9999998807907104,
        -1.0,
        -0.999999463558197
      ],
      "type": "VEC3"
    },
    {
      "bufferView": 1,
      "byteOffset": 330008,
      "componentType": 5126,
      "count": 7618,
      "max": [
        0.9663289785385132,
        0.9792309999465942
      ],
      "min": [
        0.009999999776482582,
        0.009999999776482582
      ],
      "type": "VEC2"
    },
    {
      "bufferView": 0,
      "byteOffset": 705120,
      "componentType": 5125,
      "count": 11640,
      "type": "SCALAR"
    },
    {
      "bufferView": 3,
      "componentType": 5126,
      "count": 24,
      "max": [
        0.7083333134651184
      ],
      "min": [
        0.0416666679084301
      ],
      "type": "SCALAR"
    },
    {
      "bufferView": 5,
      "componentType": 5126,
      "count": 24,
      "max": [
        4.3008010008897016e-19,
        3.747255974269855e-18,
        0.0,
        1.0
      ],
      "min": [
        -1.3181407404368061e-18,
        -8.51425844993628e-19,
        -0.2164396196603775,
        0.9762960076332092
      ],
      "type": "VEC4"
    },
    {
      "bufferView": 3,
      "byteOffset": 96,
      "componentType": 5126,
      "count": 17,
      "max": [
        1.4583333730697632
      ],
      "min": [
        0.7083333134651184
      ],
      "type": "SCALAR"
    },
    {
      "bufferView": 4,
      "componentType": 5126,
      "count": 17,
      "max": [
        -4.76837158203125e-07,
        -4.989973068237305,
        0.0
      ],
      "min": [
        -4.76837158203125e-07,
        -16.182004928588867,
        -1.6543612251060553e-24
      ],
      "type": "VEC3"
    },
    {
      "bufferView": 3,
      "byteOffset": 164,
      "componentType": 5126,
      "count": 5,
      "max": [
        1.4583333730697632
      ],
      "min": [
        0.7083333134651184
      ],
      "type": "SCALAR"
    },
    {
      "bufferView": 5,
      "byteOffset": 384,
      "componentType": 5126,
      "count": 5,
      "max": [
        0.0,
        0.0,
        0.0,
        1.0
      ],
      "min": [
        0.0,
        -3.469446951953614e-18,
        0.0,
        1.0
      ],
      "type": "VEC4"
    },
    {
      "bufferView": 3,
      "byteOffset": 184,
      "componentType": 5126,
      "count": 24,
      "max": [
        1.4583333730697632
      ],
      "min": [
        0.7083333134651184
      ],
      "type": "SCALAR"
    },
    {
      "bufferView": 4,
      "byteOffset": 204,
      "componentType": 5126,
      "count": 24,
      "max": [
        -4.76837158203125e-07,
        5.989287376403809,
        1.1580528575742387e-23
      ],
      "min": [
        -4.76837158203125e-07,
        -5.258706569671631,
        8.271806125530277e-24
      ],
      "type": "VEC3"
    },
    {
      "bufferView": 3,
      "byteOffset": 280,
      "componentType": 5126,
      "count": 17,
      "max": [
        1.4583333730697632
      ],
      "min": [
        0.7083333134651184
      ],
      "type": "SCALAR"
    },
    {
      "bufferView": 5,
      "byteOffset": 464,
      "componentType": 5126,
      "count": 17,
      "max": [
        0.0,
        0.0,
        0.129409521818161,
        1.0
      ],
      "min": [
        -0.129409521818161,
        -0.017037086188793182,
        0.0,
        0.9829629063606262
      ],
      "type": "VEC4"
    },
    {
      "bufferView": 3,
      "byteOffset": 348,
      "componentType": 5126,
      "count": 61,
      "max": [
        2.0
      ],
      "min": [
        0.0
      ],
      "type": "SCALAR"
    },
    {
      "bufferView": 4,
      "byteOffset": 492,
      "componentType": 5126,
      "count": 61,
      "max": [
        4.76837158203125e-07,
        0.5,
        0.0
      ],
      "min": [
        4.76837158203125e-07,
        -0.5,
        0.0
      ],
      "type": "VEC3"
    },
    {
      "bufferView": 3,
      "byteOffset": 592,
      "componentType": 5126,
      "count": 61,
      "max": [
        2.0
      ],
      "min": [
        0.0
      ],
      "type": "SCALAR"
    },
    {
      "bufferView": 5,
      "byteOffset": 736,
      "componentType": 5126,
      "count": 61,
      "max": [
        0.0,
        0.017452405765652657,
        0.0,
        1.0
      ],
      "min": [
        0.0,
        -0.017452405765652657,
        0.0,
        0.9998477101325989
      ],
      "type": "VEC4"
    }
  ],
  "animations": [
    {
      "channels": [
        {
          "sampler": 0,
          "target": {
            "node": 7,
            "path": "rotation"
          }
        },
        {
          "sampler": 1,
          "target": {
            "node": 5,
            "path": "translation"
          }
        },
        {
          "sampler": 2,
          "target": {
            "node": 5,
            "path": "rotation"
          }
        },
        {
          "sampler": 3,
          "target": {
            "node": 11,
            "path": "translation"
          }
        },
        {
          "sampler": 4,
          "target": {
            "node": 11,
            "path": "rotation"
          }
        },
        {
          "sampler": 5,
          "target": {
            "node": 4,
            "path": "translation"
          }
        },
        {
          "sampler": 6,
          "target": {
            "node": 4,
            "path": "rotation"
          }
        }
      ],
      "name": "Take 001",
      "samplers": [
        {
          "input": 16,
          "interpolation": "LINEAR",
          "output": 17
        },
        {
          "input": 18,
          "interpolation": "LINEAR",
          "output": 19
        },
        {
          "input": 20,
          "interpolation": "LINEAR",
          "output": 21
        },
        {
          "input": 22,
          "interpolation": "LINEAR",
          "output": 23
        },
        {
          "input": 24,
          "interpolation": "LINEAR",
          "output": 25
        },
        {
          "input": 26,
          "interpolation": "LINEAR",
          "output": 27
        },
        {
          "input": 28,
          "interpolation": "LINEAR",
          "output": 29
        }
      ]
    }
  ],
  "asset": {
    "extras": {
      "author": "xxblue (https://sketchfab.com/xxblue)",
      "license": "CC-BY-4.0 (http://creativecommons.org/licenses/by/4.0/)",
      "source": "https://sketchfab.com/3d-models/luckybox-open-5c6a3469393d4cd8acaba834d9c454a4",
      "title": "Luckybox_open"
    },
    "generator": "Sketchfab-15.29.0",
    "version": "2.0"
  },
  "bufferViews": [
    {
      "buffer": 0,
      "byteLength": 751680,
      "name": "floatBufferViews",
      "target": 34963
    },
    {
      "buffer": 0,
      "byteLength": 390952,
      "byteOffset": 751680,
      "byteStride": 8,
      "name": "floatBufferViews",
      "target": 34962
    },
    {
      "buffer": 0,
      "byteLength": 1172856,
      "byteOffset": 1142632,
      "byteStride": 12,
      "name": "floatBufferViews",
      "target": 34962
    },
    {
      "buffer": 0,
      "byteLength": 836,
      "byteOffset": 2315488,
      "name": "floatBufferViews"
    },
    {
      "buffer": 0,
      "byteLength": 1224,
      "byteOffset": 2316324,
      "byteStride": 12,
      "name": "floatBufferViews"
    },
    {
      "buffer": 0,
      "byteLength": 1712,
      "byteOffset": 2317548,
      "byteStride": 16,
      "name": "floatBufferViews"
    }
  ],
  "buffers": [
    {
      "byteLength": 2319260,
      "uri": "scene.bin"
    }
  ],
  "images": [
    {
      "uri": "textures/lambert3_baseColor.jpeg"
    }
  ],
  "materials": [
    {
      "doubleSided": true,
      "name": "lambert3",
      "pbrMetallicRoughness": {
        "baseColorTexture": {
          "index": 0
        },
        "metallicFactor": 0.0,
        "roughnessFactor": 0.6
      }
    },
    {
      "doubleSided": true,
      "name": "phong2",
      "pbrMetallicRoughness": {
        "baseColorFactor": [
          0.0322581,
          0.0322581,
          0.0322581,
          1.0
        ],
        "metallicFactor": 0.0,
        "roughnessFactor": 0.9352389215808592
      }
    }
  ],
  "meshes": [
    {
      "name": "LuckyBox_base_lambert3_0",
      "primitives": [
        {
          "attributes": {
            "NORMAL": 1,
            "POSITION": 0,
            "TEXCOORD_0": 2
          },
          "indices": 3,
          "material": 0,
          "mode": 4
        }
      ]
    },
    {
      "name": "LOGOMARK:Mesh_phong2_0",
      "primitives": [
        {
          "attributes": {
            "NORMAL": 5,
            "POSITION": 4,
            "TEXCOORD_0": 6
          },
          "indices": 7,
          "material": 1,
          "mode": 4
        }
      ]
    },
    {
      "name": "LuckyBox_body_lambert3_0",
      "primitives": [
        {
          "attributes": {
            "NORMAL": 9,
            "POSITION": 8,
            "TEXCOORD_0": 10
          },
          "indices": 11,
          "material": 0,
          "mode": 4
        }
      ]
    },
    {
      "name": "LuckyBox_lid_lambert3_0",
      "primitives": [
        {
          "attributes": {
            "NORMAL": 13,
            "POSITION": 12,
            "TEXCOORD_0": 14
          },
          "indices": 15,
          "material": 0,
          "mode": 4
        }
      ]
    }
  ],
  "nodes": [
    {
      "children": [
        1
      ],
      "matrix": [
        21.594104766845703,
        0.0,
        0.0,
        0.0,
        0.0,
        4.7948544616639895e-15,
        -21.594104766845703,
        0.0,
        0.0,
        21.594104766845703,
        4.7948544616639895e-15,
        0.0,
        0.0,
        0.0,
        0.0,
        1.0
      ],
      "name": "Sketchfab_model"
    },
    {
      "children": [
        2
      ],
      "matrix": [
        0.009999999776482582,
        0.0,
        0.0,
        0.0,
        0.0,
        0.0,
        0.009999999776482582,
        0.0,
        0.0,
        -0.009999999776482582,
        0.0,
        0.0,
        0.0,
        0.0,
        0.0,
        1.0
      ],
      "name": "8d3f90aa63994171976443cd56948297.fbx"
    },
    {
      "children": [
        3
      ],
      "name": "Object_2"
    },
    {
      "children": [
        4
      ],
      "name": "RootNode"
    },
    {
      "children": [
        5,
        11
      ],
      "name": "LuckBox_Pos",
      "rotation": [
        0.0,
        -0.017452405765652657,
        0.0,
        0.9998477101325989
      ],
      "translation": [
        4.76837158203125e-07,
        -0.5,
        0.0
      ]
    },
    {
      "children": [
        6,
        7,
        9
      ],
      "name": "LuckyBox_base",
      "translation": [
        -4.76837158203125e-07,
        -16.182004928588867,
        0.0
      ]
    },
    {
      "mesh": 0,
      "name": "LuckyBox_base_lambert3_0"
    },
    {
      "children": [
        8
      ],
      "name": "LOGOMARK:Mesh",
      "rotation": [
        0.0,
        -0.0,
        -0.2164396196603775,
        0.9762960076332092
      ],
      "translation": [
        -0.013858388178050518,
        3.5913214683532715,
        5.249081134796143
      ]
    },
    {
      "mesh": 1,
      "name": "LOGOMARK:Mesh_phong2_0"
    },
    {
      "children": [
        10
      ],
      "name": "LuckyBox_body"
    },
    {
      "mesh": 2,
      "name": "LuckyBox_body_lambert3_0"
    },
    {
      "children": [
        12
      ],
      "name": "LuckyBox_lid",
      "rotation": [
        -0.129409521818161,
        -0.017037086188793182,
        0.129409521818161,
        0.9829629063606262
      ],
      "translation": [
        -4.76837158203125e-07,
        5.989287376403809,
        9.926167350636332e-24
      ]
    },
    {
      "mesh": 3,
      "name": "LuckyBox_lid_lambert3_0"
    }
  ],
  "samplers": [
    {
      "magFilter": 9729,
      "minFilter": 9987,
      "wrapS": 10497,
      "wrapT": 10497
    }
  ],
  "scene": 0,
  "scenes": [
    {
      "name": "Sketchfab_Scene",
      "nodes": [
        0
      ]
    }
  ],
  "textures": [
    {
      "sampler": 0,
      "source": 0
    }
  ]
}
